<?xml version="1.0" encoding="UTF-8"?>
<!-- Generator: Adobe Illustrator 17.0.0, SVG Export Plug-In . SVG Version: 6.00 Build 0)  -->
<!DOCTYPE svg PUBLIC "-//W3C//DTD SVG 1.1//EN" "http://www.w3.org/Graphics/SVG/1.1/DTD/svg11.dtd">
<svg version="1.1" id="Layer_1" xmlns="http://www.w3.org/2000/svg" xmlns:xlink="http://www.w3.org/1999/xlink" x="0px" y="0px" width="960px" height="560px" viewBox="0 0 960 560" enable-background="new 0 0 960 560" xml:space="preserve">
<g>
	<path fill="#062A63" d="M162.942,231.055c-3.705,33.016,1.564,182.62,4.486,301.727l48.793-0.639c0,0-0.578-222.781,0.918-244.075   l1.129-51.39L162.942,231.055z"/>
	<g>
		<path fill="#154593" d="M171.623,532.727c-0.346,0-0.891-61.043-0.891-137.678c0-76.662,0.281-138.788,0.627-138.788    c0.345,0,0.626,62.126,0.626,138.788C171.985,471.684,171.969,532.727,171.623,532.727z"/>
	</g>
	<g>
		
			<rect x="99.726" y="290.639" transform="matrix(0.992 -0.1262 0.1262 0.992 -39.7959 21.7025)" fill="#EF6C74" width="103.378" height="68.697"/>
		<polygon fill="#FFFFFF" points="161.875,306.998 167.756,341.496 186.453,339.278 179.996,304.224   "/>
		<polygon fill="#062A63" points="169.822,311.111 174.164,334.812 175.774,334.271 171.012,311.111   "/>
	</g>
	<path fill="#154593" d="M237.164,533.249l3.103-15.832l-33.381-13.33l-5.246,23.524l1.839,0.292   c7.464,3.472,43.84,20.278,49.56,20.769C259.418,549.219,237.164,533.249,237.164,533.249z"/>
	<path fill="#154593" d="M208.917,536.176l-2.99-15.854h-35.944l3.769,23.277l1.9,0.104c8.219,0.456,48.234,2.574,53.728,0.908   C235.506,542.754,208.917,536.176,208.917,536.176z"/>
	<path fill="#062A63" d="M223.957,315.53c-5.204-18.306-9.477-32.968-9.477-32.968l2.659-47.107l37.291,2.864   c0,0,35.595,127.333,27.667,159.572c-9.505,38.654-37.387,132.826-37.387,132.826l-43.09-11.793c0,0,41.074-124.849,40.814-133.08   C242.278,380.847,232.003,343.834,223.957,315.53"/>
	<g>
		<path fill="#F6BA99" d="M307.669,171.107l1.794-6.142c0,0,1.683-3.538,3.223-10.263c0.4-1.745,0.482-3.547,0.274-5.324    c-0.252-2.156-0.703-5.007-1.435-6.49c-0.905-1.836,0.893-3.818,2.541-2.958c1.649,0.86,4.267,5.859,4.442,12.449    c0.175,6.59,6.506-1.628,8.867-4.582c2.361-2.954,10.093-11.75,11.577-11.743c2.174,0.01,2.566,2.341,0.139,5.236    c-2.456,2.93-9.091,12.089-7.471,13.26c1.596,1.154,13.408-14.046,13.408-14.046s1.999-3.658,3.917-2.366    c3.458,2.329-10.289,17.563-11.633,18.981c-0.934,0.985,0.781,2.321,1.727,1.21c0.975-1.144,11.43-15.436,14.974-13.098    c2.719,1.794-11.191,12.636-11.713,16.806c-0.522,4.17,9.713-9.294,12.239-7.475c0.941,0.678,1.549,1.314-5.445,8.198    c-7.163,7.05-29.677,22.991-29.677,22.991l-11.758-15.025"/>
	</g>
	<g>
		<path fill="#F6BA99" d="M147.872,304.092l3.672,5.24c0,0,1.709,3.526,5.995,8.932c1.112,1.403,2.467,2.593,3.984,3.543    c1.84,1.151,4.347,2.581,5.962,2.938c1.999,0.441,2.422,3.083,0.72,3.833c-1.702,0.75-7.241-0.333-12.493-4.316    s-2.796,6.095-1.967,9.785c0.829,3.689,2.86,15.223,1.928,16.377c-1.367,1.691-3.431,0.539-4.173-3.165    c-0.751-3.749-3.751-14.653-5.679-14.121c-1.898,0.524,2.58,19.246,2.58,19.246s1.605,3.847-0.602,4.536    c-3.98,1.243-7.275-19.011-7.541-20.946c-0.185-1.345-2.299-0.842-2.024,0.591c0.284,1.476,4.902,18.571,0.862,19.875    c-3.1,1-2.866-16.635-5.794-19.649c-2.928-3.014,1.182,13.391-1.818,14.226c-1.117,0.311-1.994,0.388-2.994-9.374    c-1.025-9.998,0.609-37.535,0.609-37.535l19.077,0.217"/>
	</g>
	<g>
		<defs>
			<path id="SVGID_1_" d="M307.706,156.204c0,0-32.301,41.98-37.192,43.659c-4.891,1.68-2.342-80.969-2.342-80.969     c-5.539-29.153-38.023-29.153-38.023-29.153l-51.221-3.597c0,0-18.565,0.802-23.908,18.303l-0.107-0.125     c0,0-0.261,1.228-0.725,3.474c0,0,0,0.001,0,0.001l0,0c-4.709,22.779-30.686,152.107-25.305,207.734l23.364-3.585     c0,0,5.344-99.704,20.351-160.088l1.267,11.697c2.892,11.662,3.551,24.716-2.575,35.051c-10.146,17.118-8.84,38.313-8.84,38.313     l93.074,5.383c0,0-1.898-5.383-1.093-3.982c28.819,9.687,79.323-60.191,79.323-60.191L307.706,156.204z"/>
		</defs>
		<clipPath id="SVGID_2_">
			<use xlink:href="#SVGID_1_" overflow="visible" opacity="0.18"/>
		</clipPath>
		<path clip-path="url(#SVGID_2_)" fill="#FCD588" d="M307.706,156.204c0,0-32.301,41.98-37.192,43.659    c-4.891,1.68-2.342-80.969-2.342-80.969c-5.539-29.153-38.023-29.153-38.023-29.153l-51.221-3.597c0,0-18.565,0.802-23.908,18.303    l-0.107-0.125c0,0-0.261,1.228-0.725,3.474c0,0,0,0.001,0,0.001l0,0c-4.709,22.779-30.686,152.107-25.305,207.734l23.364-3.585    c0,0,5.344-99.704,20.351-160.088l1.267,11.697c2.892,11.662,3.551,24.716-2.575,35.051c-10.146,17.118-8.84,38.313-8.84,38.313    l91.176,3.878c0,0,1.368,11.681,0.805-2.477c28.819,9.687,79.323-60.191,79.323-60.191L307.706,156.204z"/>
		<g opacity="0.18" clip-path="url(#SVGID_2_)">
			<g>
				<g>
					<path fill="#133C77" d="M265.939,103.055c0,0.144-25.618,0.26-57.212,0.26c-31.605,0-57.218-0.117-57.218-0.26       c0-0.144,25.613-0.26,57.218-0.26C240.321,102.794,265.939,102.911,265.939,103.055z"/>
				</g>
			</g>
		</g>
		<g opacity="0.18" clip-path="url(#SVGID_2_)">
			<g>
				<g>
					<path fill="#133C77" d="M275.772,126.298c0,0.144-31.322,0.26-69.951,0.26c-38.642,0-69.957-0.117-69.957-0.26       c0-0.144,31.315-0.26,69.957-0.26C244.45,126.038,275.772,126.155,275.772,126.298z"/>
				</g>
			</g>
		</g>
		<g opacity="0.18" clip-path="url(#SVGID_2_)">
			<g>
				<g>
					<path fill="#133C77" d="M273.537,154.012c0,0.144-31.522,0.26-70.398,0.26c-38.889,0-70.404-0.117-70.404-0.26       c0-0.144,31.515-0.26,70.404-0.26C242.015,153.751,273.537,153.868,273.537,154.012z"/>
				</g>
			</g>
		</g>
		<g opacity="0.18" clip-path="url(#SVGID_2_)">
			<g>
				<g>
					<path fill="#133C77" d="M333.753,179.053c0,0.144-44.852,0.26-100.168,0.26c-55.335,0-100.178-0.117-100.178-0.26       c0-0.144,44.843-0.26,100.178-0.26C288.901,178.793,333.753,178.909,333.753,179.053z"/>
				</g>
			</g>
		</g>
		<g opacity="0.18" clip-path="url(#SVGID_2_)">
			<g>
				<g>
					<path fill="#133C77" d="M316.752,213.461c0,0.144-43.225,0.26-96.534,0.26c-53.327,0-96.543-0.117-96.543-0.26       c0-0.144,43.216-0.26,96.543-0.26C273.527,213.201,316.752,213.318,316.752,213.461z"/>
				</g>
			</g>
		</g>
		<g opacity="0.18" clip-path="url(#SVGID_2_)">
			<g>
				<g>
					<path fill="#133C77" d="M309.928,248.007c0,0.144-47.252,0.26-105.528,0.26c-58.296,0-105.538-0.117-105.538-0.26       c0-0.144,47.242-0.26,105.538-0.26C262.676,247.746,309.928,247.863,309.928,248.007z"/>
				</g>
			</g>
		</g>
		<g opacity="0.18" clip-path="url(#SVGID_2_)">
			<g>
				<g>
					<path fill="#133C77" d="M239.665,280.239c0,0.144-31.522,0.26-70.398,0.26c-38.889,0-70.404-0.117-70.404-0.26       c0-0.144,31.515-0.26,70.404-0.26C208.143,279.979,239.665,280.096,239.665,280.239z"/>
				</g>
			</g>
		</g>
		<g opacity="0.36" clip-path="url(#SVGID_2_)">
			<g>
				<path fill="none" stroke="#456594" stroke-width="0.05" stroke-miterlimit="10" d="M168.893,71.25"/>
			</g>
		</g>
		<g opacity="0.18" clip-path="url(#SVGID_2_)">
			<g>
				<g>
					<path fill="#133C77" d="M185.868,262.903c-0.144,0-0.26-42.294-0.26-94.453c0-52.178,0.117-94.462,0.26-94.462       c0.144,0,0.26,42.284,0.26,94.462C186.128,220.61,186.011,262.903,185.868,262.903z"/>
				</g>
			</g>
		</g>
		<g opacity="0.18" clip-path="url(#SVGID_2_)">
			<g>
				<g>
					<path fill="#133C77" d="M158.488,262.903c-0.144,0-0.26-42.294-0.26-94.453c0-52.178,0.117-94.462,0.26-94.462       c0.144,0,0.26,42.284,0.26,94.462C158.749,220.61,158.632,262.903,158.488,262.903z"/>
				</g>
			</g>
		</g>
		<g opacity="0.18" clip-path="url(#SVGID_2_)">
			<g>
				<g>
					<path fill="#133C77" d="M217.595,262.903c-0.144,0-0.26-42.294-0.26-94.453c0-52.178,0.117-94.462,0.26-94.462       c0.144,0,0.26,42.284,0.26,94.462C217.855,220.61,217.739,262.903,217.595,262.903z"/>
				</g>
			</g>
		</g>
		<g opacity="0.18" clip-path="url(#SVGID_2_)">
			<g>
				<g>
					<path fill="#133C77" d="M248.259,262.903c-0.144,0-0.26-42.294-0.26-94.453c0-52.178,0.117-94.462,0.26-94.462       c0.144,0,0.26,42.284,0.26,94.462C248.52,220.61,248.403,262.903,248.259,262.903z"/>
				</g>
			</g>
		</g>
		<g opacity="0.18" clip-path="url(#SVGID_2_)">
			<g>
				<g>
					<path fill="#133C77" d="M273.448,262.903c-0.144,0-0.26-42.294-0.26-94.453c0-52.178,0.117-94.462,0.26-94.462       c0.144,0,0.26,42.284,0.26,94.462C273.709,220.61,273.592,262.903,273.448,262.903z"/>
				</g>
			</g>
		</g>
		<g opacity="0.18" clip-path="url(#SVGID_2_)">
			<g>
				<g>
					<path fill="#133C77" d="M307.08,262.903c-0.144,0-0.26-42.294-0.26-94.453c0-52.178,0.117-94.462,0.26-94.462       c0.144,0,0.26,42.284,0.26,94.462C307.34,220.61,307.224,262.903,307.08,262.903z"/>
				</g>
			</g>
		</g>
		<g opacity="0.18" clip-path="url(#SVGID_2_)">
			<g>
				<g>
					<path fill="#133C77" d="M137.483,315.56c-0.144,0-0.26-42.294-0.26-94.453c0-52.178,0.117-94.462,0.26-94.462       c0.144,0,0.26,42.284,0.26,94.462C137.744,273.266,137.627,315.56,137.483,315.56z"/>
				</g>
			</g>
		</g>
	</g>
	<g>
		<path fill="#EDB758" d="M218.941,236.919c-0.049,0.001-0.106-0.504-0.171-1.468c-0.057-1.122-0.129-2.515-0.216-4.216    c-0.162-3.662-0.32-8.963-0.466-15.514c-0.298-13.103-0.468-31.206-0.522-51.197c-0.043-19.904-0.082-37.913-0.111-51.198    c-0.008-6.399-0.015-11.65-0.02-15.515c0.019-1.702,0.035-3.097,0.048-4.22c0.027-0.965,0.064-1.473,0.112-1.474    c0.049-0.001,0.106,0.504,0.171,1.468c0.057,1.121,0.129,2.515,0.216,4.215c0.162,3.662,0.32,8.962,0.466,15.514    c0.298,13.102,0.468,31.208,0.522,51.205c0.043,19.898,0.082,37.905,0.111,51.189c0.008,6.399,0.015,11.651,0.02,15.516    c-0.019,1.703-0.035,3.098-0.048,4.221C219.027,236.41,218.989,236.918,218.941,236.919z"/>
	</g>
	<g>
		<path fill="#EDB758" d="M178.89,128.935c0.375,0.166-1.852,5.778-3.863,12.913c-2.041,7.129-3.095,13.072-3.502,13.016    c-0.363-0.037,0.078-6.155,2.151-13.4C175.721,134.213,178.561,128.775,178.89,128.935z"/>
	</g>
	<g>
		<path fill="#EDB758" d="M253.794,127.745c0.097,0.003,0.149,1.553,0.159,4.351c-0.001,3.044-0.002,7.034-0.003,11.848    c-0.02,10.003,0.025,23.82,0.171,39.081c0.167,15.149,0.318,28.852,0.431,39.093c0.019,4.816,0.035,8.806,0.047,11.851    c-0.017,2.799-0.072,4.348-0.169,4.35c-0.097,0.002-0.226-1.542-0.377-4.337c-0.127-3.042-0.293-7.03-0.493-11.842    c-0.345-10.002-0.692-23.825-0.842-39.101c-0.146-15.271-0.034-29.101,0.24-39.109c0.13-5.004,0.291-9.052,0.45-11.848    C253.564,129.286,253.697,127.742,253.794,127.745z"/>
	</g>
	<g>
		<g>
			<g>
				<path fill="#F6BA99" d="M224.11,91.551c-0.434-3.134,1.251-16.184,1.251-16.184s11.991-0.881,13.097-12.709      s1.258-39.181,1.258-39.181l-21.426-11.341l-24.526,17.371l-5.593,12.97l7.347,30.853l-0.029,15.549L224.11,91.551z"/>
				<g>
					<circle fill="#00143A" cx="236.6" cy="42.197" r="1.518"/>
					<g>
						<path fill="#00143A" d="M238.22,41.715c-0.202,0.19-1.292-0.799-2.922-0.939c-1.628-0.164-2.882,0.607-3.045,0.382        c-0.081-0.1,0.134-0.455,0.683-0.806c0.538-0.349,1.439-0.655,2.455-0.56c1.015,0.095,1.843,0.562,2.308,1.004        C238.173,41.243,238.317,41.632,238.22,41.715z"/>
					</g>
				</g>
				<g>
					<circle fill="#00143A" cx="218.592" cy="41.704" r="1.518"/>
					<g>
						<path fill="#00143A" d="M220.117,41.134c-0.202,0.19-1.292-0.799-2.922-0.939c-1.628-0.164-2.882,0.607-3.045,0.382        c-0.081-0.1,0.134-0.455,0.682-0.806c0.539-0.349,1.439-0.655,2.455-0.56c1.015,0.095,1.844,0.562,2.308,1.004        C220.069,40.662,220.214,41.05,220.117,41.134z"/>
					</g>
				</g>
				<g>
					<path fill="#00143A" d="M225.565,55.117c-0.001-0.086,1.025-0.171,2.683-0.237c0.415-0.007,0.834-0.052,0.937-0.365       c0.127-0.323-0.021-0.813-0.187-1.335c-0.319-1.081-0.656-2.223-1.009-3.421c-0.7-2.433-1.299-4.644-1.703-6.254       c-0.404-1.609-0.612-2.617-0.529-2.641c0.083-0.024,0.442,0.94,0.954,2.519c0.513,1.578,1.18,3.771,1.879,6.203       c0.337,1.203,0.658,2.35,0.962,3.435c0.126,0.509,0.356,1.088,0.109,1.703c-0.129,0.305-0.439,0.508-0.704,0.558       c-0.267,0.061-0.501,0.046-0.707,0.042C226.592,55.276,225.565,55.203,225.565,55.117z"/>
				</g>
				<g opacity="0.46">
					<path fill="#F2957E" d="M218.455,53.276c-0.087,1.35-2.196,2.252-4.718,2.229c-2.522-0.029-4.592-0.974-4.623-2.326       c-0.031-1.342,2.085-2.589,4.725-2.56C216.478,50.645,218.541,51.935,218.455,53.276z"/>
				</g>
				<path fill="#F3F0EB" d="M220.121,56.489c-1.617-1.149,4.476,2.865,7.808,2.972c0,0-2.151,2.889-5.463,1.362      C219.028,59.239,220.121,56.489,220.121,56.489z"/>
				<path fill="#F2957E" d="M225.361,75.367c0,0-7.984-0.167-15.532-5.807c0,0,3.279,8.816,15.18,8.707L225.361,75.367z"/>
			</g>
			<path fill="#3D3530" d="M188.608,55.477c3.206,7.205,5.186,17.693,5.186,17.693c1.767,3.277,2.357-7.049,2.357-7.049     s1.514-9.926,0.141-13.796c0,0-6.042,1.955-7.401-8.884c-0.672-5.356,7.417-7.924,9.618-1.442l5.047,0.466     c0,0,0.41-20.244,12.042-16.513c0,0,8.435,5.207,13.464,2.02s4.667-4.288,4.667-4.288s2.419,5.325,8.905,1.828     c6.486-3.497,7.341-9.734,5.092-12.715c-1.3-1.723-2.56-3.641-4.685-4.025c-2.124-0.383-4.427,0.464-5.796,2.133     c1.59-2.33,0.467-5.813-1.894-7.356c-2.361-1.543-5.509-1.423-8.133-0.388c-2.624,1.035-4.842,2.869-7.01,4.673     c-1.488-4.274-6.063-7.251-10.573-6.88c-4.51,0.371-8.537,4.057-9.306,8.517c-2.436-3.033-7.11-3.725-10.618-2.045     c-3.508,1.68-5.818,5.339-6.488,9.171c-0.67,3.832,0.135,7.802,1.607,11.403c-2.71-1.562-6.473-0.442-8.298,2.099     s-1.841,6.102-0.508,8.932c1.333,2.83,3.842,4.976,6.624,6.406c-2.062,1.671-2.691,4.871-1.414,7.197     c1.277,2.327,4.313,3.516,6.83,2.675"/>
		</g>
		<g>
			<path fill="#F2957E" d="M197.168,48.304c-0.046-0.029-0.169,0.134-0.458,0.288c-0.282,0.15-0.775,0.272-1.313,0.107     c-1.09-0.327-2.091-1.966-2.25-3.783c-0.082-0.917,0.057-1.804,0.339-2.548c0.264-0.757,0.71-1.302,1.241-1.43     c0.527-0.156,0.927,0.143,1.067,0.419c0.152,0.274,0.101,0.48,0.155,0.494c0.03,0.024,0.206-0.182,0.1-0.594     c-0.054-0.198-0.187-0.429-0.436-0.608c-0.255-0.182-0.617-0.261-0.989-0.198c-0.775,0.101-1.433,0.86-1.742,1.677     c-0.352,0.823-0.531,1.821-0.439,2.851c0.188,2.03,1.345,3.871,2.83,4.205c0.722,0.142,1.301-0.108,1.593-0.365     C197.165,48.55,197.204,48.32,197.168,48.304z"/>
		</g>
	</g>
	<g>
		<path fill="#154593" d="M218.143,291.946c0.019-0.01,0.126,0.157,0.315,0.49c0.195,0.36,0.464,0.856,0.81,1.494    c0.7,1.319,1.714,3.274,2.998,5.802c2.562,5.06,6.25,12.395,10.448,21.637c4.14,9.259,8.839,20.443,12.544,33.379    c1.862,6.46,3.423,13.36,4.544,20.599c1.077,7.243,1.634,14.837,1.462,22.609c-0.037,3.891-0.463,7.715-0.784,11.486    c-0.262,1.874-0.523,3.735-0.781,5.58c-0.251,1.847-0.665,3.651-0.985,5.454c-1.453,7.178-3.306,14.009-5.477,20.372    c-4.335,12.734-9.411,23.747-13.939,32.823c-4.548,9.074-8.5,16.27-11.263,21.222c-1.374,2.481-2.471,4.39-3.218,5.683    c-0.37,0.624-0.657,1.109-0.866,1.462c-0.201,0.326-0.314,0.488-0.333,0.477c-0.019-0.01,0.056-0.193,0.22-0.539    c0.183-0.366,0.434-0.871,0.757-1.521c0.702-1.35,1.713-3.298,3.01-5.794c2.63-5.022,6.46-12.277,10.897-21.381    c4.417-9.107,9.39-20.12,13.639-32.799c2.129-6.336,3.943-13.122,5.368-20.244c0.313-1.788,0.721-3.578,0.966-5.408    c0.253-1.829,0.509-3.673,0.766-5.53c0.313-3.735,0.734-7.52,0.77-11.372c0.17-7.695-0.372-15.219-1.424-22.403    c-1.095-7.18-2.619-14.034-4.44-20.462c-3.62-12.872-8.215-24.052-12.243-33.335c-4.086-9.267-7.65-16.658-10.077-21.781    c-1.201-2.544-2.137-4.529-2.787-5.905c-0.298-0.662-0.53-1.176-0.698-1.549C218.192,292.141,218.124,291.955,218.143,291.946z"/>
	</g>
	<polygon fill="#EDB758" points="194.8,79.913 191.297,88.379 215.453,95.512 216.321,84.14  "/>
	<path fill="#EDB758" d="M220.788,96.118C219.542,89.806,220,83.877,220,83.877l4.559-1.455l6.706,7.36L220.788,96.118z"/>
	<polyline fill="#EDB758" points="232.833,138.11 232.833,148.107 239.716,151.696 245.906,147.338 245.906,136.828    232.833,136.828  "/>
	<polygon fill="#EDB758" points="307.706,156.204 300.8,164.518 327.447,185.75 333.753,178.129  "/>
	<circle opacity="0.18" fill="#133C77" cx="307.659" cy="163.25" r="2.349"/>
	<polygon fill="#EDB758" points="128.882,315.53 152.246,311.945 152.246,302.839 128.152,307.131  "/>
	<circle opacity="0.18" fill="#133C77" cx="147.641" cy="308.501" r="2.348"/>
	<g>
		<path fill="#EDB758" d="M193.964,191.152c-0.109,0.386-3.914-0.388-8.625-1.073c-4.71-0.702-8.575-1.058-8.569-1.459    c0-0.375,3.958-0.648,8.773,0.069C190.36,189.391,194.073,190.793,193.964,191.152z"/>
	</g>
	<g>
		
			<ellipse transform="matrix(0.9958 0.0916 -0.0916 0.9958 17.9191 -15.9369)" fill="#EDB758" cx="182.513" cy="187.171" rx="5.458" ry="0.702"/>
	</g>
	<g>
		<path fill="#EDB758" d="M265.887,206.385c-0.348-0.152,0.167-2.07,1.522-4.062c1.348-1.998,2.938-3.188,3.208-2.921    c0.285,0.274-0.775,1.822-2.045,3.708C267.292,204.989,266.247,206.548,265.887,206.385z"/>
	</g>
	<g>
		
			<ellipse transform="matrix(-0.0774 0.997 -0.997 -0.0774 493.5685 -50.3424)" fill="#EDB758" cx="270.078" cy="203.209" rx="3.449" ry="0.702"/>
	</g>
	<polygon fill="#D3702D" points="162.942,231.055 162.45,236.919 255.524,242.302 254.43,238.32  "/>
	<polygon fill="#062A63" points="175.432,231.66 175.432,239.4 186.869,240.44 187.335,232.992  "/>
	<polygon fill="#062A63" points="235.491,235.487 235.491,243.227 246.927,244.266 247.393,236.819  "/>
	<path fill="#635449" d="M590.308,502.042l14.205,18.286c0,0-19.045,21.211-12.684,19.227c6.362-1.984,41.4-30.136,41.4-30.136   s-16.9-22.687-16.619-22.852C616.892,486.401,590.308,502.042,590.308,502.042z"/>
	<polygon fill="#7DADB2" points="569.477,365.221 629.475,491.668 591.354,513.126 529.019,399.878 532.947,362.6  "/>
	<g opacity="0.36">
		<path fill="#154593" d="M624.891,494.248c-0.041,0.018-0.28-0.392-0.697-1.188c-0.428-0.843-1.022-2.014-1.776-3.5    c-0.793-1.528-1.752-3.375-2.861-5.513c-1.137-2.147-2.426-4.584-3.848-7.272c-5.806-10.774-13.789-25.587-22.608-41.95    c-8.838-16.387-16.756-31.268-22.285-42.149c-1.361-2.724-2.595-5.192-3.682-7.367c-1.035-2.179-1.93-4.062-2.669-5.619    c-0.704-1.556-1.215-2.782-1.56-3.612c-0.341-0.832-0.5-1.277-0.46-1.295c0.041-0.018,0.28,0.392,0.697,1.188    c0.428,0.843,1.022,2.013,1.776,3.5c0.793,1.527,1.752,3.375,2.861,5.512c1.136,2.147,2.425,4.583,3.848,7.272    c5.806,10.774,13.79,25.588,22.612,41.957c8.834,16.381,16.752,31.261,22.281,42.142c1.361,2.724,2.595,5.192,3.682,7.367    c1.035,2.179,1.93,4.062,2.67,5.619c0.704,1.556,1.215,2.782,1.561,3.612C624.773,493.785,624.932,494.23,624.891,494.248z"/>
	</g>
	<polygon opacity="0.23" fill="#154593" points="559.708,455.632 562.438,460.593 573.391,373.468 570.696,367.749 560.686,367.457    556.769,408.592  "/>
	<g>
		<g>
			<polygon fill="#AD9380" points="724.763,404.544 769.618,558.511 774.745,558.511 740.328,404.023    "/>
			<polygon fill="#AD9380" points="643.734,405.304 609.581,555.913 615.64,555.913 661.351,405.258    "/>
			<polygon fill="#AD9380" points="683.696,401.828 688.922,555.913 696.087,555.913 699.232,402.422    "/>
			<polygon fill="#AD9380" points="642.15,466.281 744.577,463.071 745.255,473.676 634.463,477.925    "/>
			<polygon opacity="0.15" fill="#00143A" points="643.676,405.258 642.105,413.05 659.054,413.05 661.17,405.258    "/>
			<polygon opacity="0.15" fill="#00143A" points="683.764,405.553 684.019,413.05 699.049,413.05 699.232,404.134    "/>
			<polyline opacity="0.15" fill="#00143A" points="685.802,464.361 686.176,475.391 679.655,475.391 677.122,464.633      687.528,464.361    "/>
			<polygon opacity="0.15" fill="#00143A" points="699.005,464.531 699.005,475.49 703.948,475.3 705.382,464.331    "/>
		</g>
		<polygon opacity="0.15" fill="#00143A" points="724.763,402.352 726.366,407.855 741.67,407.855 740.328,401.832   "/>
	</g>
	<path fill="#FCE8CF" d="M608.434,393.467c14.567-7.139,73.434-3.293,73.434-3.293s-16.621-206.345,4.869-207.997   c21.491-1.652,70.17-17.126,78.949,14.079c9.226,32.792-3.247,208.104-15.561,206.404c-28.085-3.875-114.7,6.156-140.777,0.015   C602.627,401.093,608.434,393.467,608.434,393.467z"/>
	<g opacity="0.23">
		<path fill="#2B4C60" d="M747.17,199.82c0.09-0.051,0.504,0.514,1.214,1.648c0.37,0.559,0.754,1.29,1.203,2.159    c0.472,0.859,0.93,1.89,1.439,3.056c2.028,4.658,4.122,11.82,5.074,20.86c1.002,9.041,1.064,19.809,0.864,31.726    c-0.204,11.928-0.928,25.022-1.996,38.729c-1.089,13.711-2.402,26.738-3.642,38.574c-1.223,11.831-2.424,22.529-4.092,31.424    c-1.631,8.901-3.66,15.97-5.37,20.729c-1.724,4.76-3.013,7.251-3.176,7.184c-0.223-0.088,0.693-2.719,2.057-7.54    c1.351-4.824,3.04-11.874,4.386-20.728c1.383-8.849,2.357-19.488,3.429-31.341c1.088-11.849,2.315-24.866,3.401-38.539    c1.065-13.668,1.869-26.699,2.224-38.562c0.352-11.862,0.507-22.566-0.209-31.451c-0.668-8.903-2.394-15.945-4.047-20.642    C748.276,202.401,746.943,199.944,747.17,199.82z"/>
	</g>
	<path fill="#F6BA99" d="M529.115,274.004l-5.352-2.866c0,0-3.468-1.236-9.077-4.645c-1.455-0.885-2.763-2.009-3.882-3.304   c-1.357-1.569-3.082-3.72-3.685-5.157c-0.747-1.778-3.195-1.924-3.571-0.309c-0.375,1.615,1.569,6.555,6.07,10.972   c4.5,4.417-4.987,3.094-8.447,2.673c-3.46-0.421-14.181-1.226-15.054-0.274c-1.28,1.396,0.118,3.169,3.576,3.51   c3.5,0.345,13.824,2.088,13.684,3.889c-0.138,1.774-17.746-0.609-17.746-0.609s-3.738-1.112-3.971,0.957   c-0.419,3.732,18.358,4.899,20.144,4.966c1.241,0.047,1.16,2.015-0.176,1.894c-1.376-0.125-17.547-2.781-18.01,1.011   c-0.355,2.909,15.45,1.104,18.671,3.495c3.222,2.391-12.24,0.135-12.463,2.938c-0.083,1.044,0.001,1.848,8.948,1.876   c9.163,0.029,33.62-3.944,33.62-3.944l-3.54-17.33"/>
	<g>
		<path fill="#EF6C74" d="M649.719,200.54c0,0-46.081,61.908-56.653,64.67c-10.572,2.763-70.977,6.39-70.977,6.39l-5.377,26.165    c0,0,77.328,4.082,94.355-8.488c26.759-19.754,54.872-65.193,54.872-65.193C666.646,209.099,660.926,201.616,649.719,200.54z"/>
	</g>
	<path fill="#635449" d="M524.445,524.683l2.925,22.97c0,0-27.188,8.571-20.702,10.1c6.486,1.529,50.974-4.881,50.974-4.881   s-3.007-28.129-2.68-28.128C555.289,524.744,524.445,524.683,524.445,524.683z"/>
	<path fill="#A0D2DB" d="M711.329,316.292c0,0,25.672,54.861-24.946,73.69l-27.01-58.701L711.329,316.292z"/>
	<path fill="#A0D2DB" d="M676.127,330.848c0,0-146.117-40.131-162.536-6.438c-16.418,33.693,3.119,209.162,3.119,209.162   l45.734-4.809c0,0-7.606-154.074,0-159.49c7.606-5.416,112.886,21.189,123.939,20.708   C713.285,388.81,732.315,338.622,676.127,330.848z"/>
	<path fill="#EF6C74" d="M679.23,184c-19.186,0.408-34.793,15.604-35.677,34.775c-0.735,15.941,0.841,37.824-3.513,57.036   c-2.241,9.888-15.149,49.785-15.149,49.785l12.965,2.165c20.05,3.349,40.587,2.332,60.209-2.981l14.746-3.993   c0,0,8.501-44.356,13.317-85.997c4.024-34.799-2.613-48.306-23.713-51.283L679.23,184z"/>
	<path fill="#F6BA99" d="M669.136,186.484c0.649-3.367-0.428-17.586-0.428-17.586s-12.927-1.64-13.447-14.504   c-0.52-12.864,0.882-42.475,0.882-42.475l23.837-11.046l25.549,20.203l2.353,14.171l-5.928,16.842l-2.649,32.194L669.136,186.484z"/>
	<g>
		<circle fill="#00143A" cx="680.443" cy="133.247" r="1.299"/>
		<g>
			<path fill="#00143A" d="M677.263,131.578c0.208,0.217,1.444-0.791,3.216-0.849c1.772-0.084,3.084,0.821,3.274,0.588     c0.093-0.104-0.119-0.5-0.693-0.911c-0.563-0.409-1.52-0.791-2.624-0.747c-1.104,0.044-2.027,0.502-2.555,0.955     C677.342,131.07,677.163,131.482,677.263,131.578z"/>
		</g>
	</g>
	<g>
		<circle fill="#00143A" cx="659.13" cy="133.247" r="1.299"/>
		<g>
			<path fill="#00143A" d="M655.951,131.578c0.208,0.217,1.444-0.791,3.216-0.849c1.772-0.084,3.084,0.821,3.274,0.588     c0.093-0.104-0.119-0.5-0.693-0.911c-0.563-0.409-1.52-0.791-2.624-0.747c-1.104,0.044-2.027,0.502-2.555,0.955     C656.029,131.07,655.85,131.482,655.951,131.578z"/>
		</g>
	</g>
	<g>
		<path fill="#00143A" d="M669.647,146.971c-0.005,0.083-1.119,0.093-2.917,0.042c-0.223-0.008-0.475-0.007-0.755-0.087    c-0.279-0.07-0.591-0.299-0.71-0.628c-0.227-0.662,0.05-1.27,0.219-1.814c0.39-1.15,0.805-2.375,1.241-3.661    c0.896-2.593,1.739-4.929,2.378-6.609s1.073-2.707,1.152-2.68c0.079,0.027-0.213,1.102-0.749,2.819    c-0.535,1.717-1.315,4.074-2.211,6.667c-0.451,1.28-0.881,2.5-1.285,3.646c-0.208,0.555-0.401,1.082-0.276,1.457    c0.106,0.367,0.576,0.435,1.021,0.465C668.546,146.747,669.652,146.888,669.647,146.971z"/>
	</g>
	<g opacity="0.52">
		<path fill="#F2957E" d="M677.934,142.73c0.017,1.467,2.247,2.563,4.978,2.683c2.732,0.113,5.026-0.791,5.137-2.252    c0.111-1.451-2.108-2.921-4.967-3.04C680.223,139.996,677.917,141.274,677.934,142.73z"/>
	</g>
	<path fill="#F3F0EB" d="M675.46,148.767c1.816-1.151-5.009,2.844-8.621,2.769c0,0,2.162,3.249,5.834,1.788   C676.485,151.806,675.46,148.767,675.46,148.767z"/>
	<path fill="#F2957E" d="M668.708,168.898c0,0,8.651,0.276,17.142-5.395c0,0-4.054,9.353-16.927,8.554L668.708,168.898z"/>
	<path fill="#F6BA99" d="M640.383,317.797l-6.061-0.357c0,0-3.666,0.333-10.188-0.409c-1.692-0.193-3.351-0.665-4.91-1.37   c-1.89-0.855-4.358-2.084-5.509-3.135c-1.424-1.301-3.708-0.406-3.37,1.218c0.337,1.624,4.174,5.292,10.112,7.414   c5.939,2.122-3.229,4.9-6.547,5.97c-3.318,1.069-13.387,4.836-13.78,6.066c-0.576,1.804,1.436,2.827,4.718,1.686   c3.322-1.155,13.425-3.904,14.053-2.21c0.619,1.668-16.365,6.892-16.365,6.892s-3.86,0.559-3.203,2.534   c1.185,3.563,18.72-3.254,20.369-3.942c1.146-0.478,1.898,1.343,0.634,1.793c-1.301,0.464-17.095,4.837-15.924,8.473   c0.898,2.79,14.487-5.479,18.415-4.66c3.927,0.818-11.054,5.257-10.081,7.896c0.362,0.983,0.777,1.677,8.91-2.051   c8.33-3.818,28.864-17.684,28.864-17.684l-10.484-14.246"/>
	<g opacity="0.35">
		<path fill="#154593" d="M699.229,346.189c-0.107,0.166-2.191-1.05-5.631-2.846c-3.437-1.8-8.273-4.111-13.812-6.171    c-5.545-2.05-10.719-3.45-14.498-4.326c-3.779-0.88-6.151-1.317-6.124-1.513c0.02-0.158,2.443-0.041,6.306,0.617    c3.86,0.654,9.147,1.932,14.766,4.01c5.613,2.087,10.454,4.564,13.808,6.585C697.402,344.565,699.317,346.057,699.229,346.189z"/>
	</g>
	<g opacity="0.35">
		<path fill="#154593" d="M705.792,337.96c-0.101,0.376-4.383-0.703-9.732-0.493c-5.352,0.155-9.55,1.524-9.677,1.155    c-0.148-0.29,4.029-2.277,9.633-2.447C701.617,335.963,705.92,337.661,705.792,337.96z"/>
	</g>
	<path opacity="0.36" fill="#2B4C60" d="M658.818,329.692c0,0,28.709-8.197,46.973-25.198c14.56-13.553,14.312-26.139,14.312-26.139   l6.865-52.705L658.818,329.692z"/>
	<g opacity="0.36">
		<path fill="#154593" d="M704.357,382.522c-0.005,0.022-0.289-0.027-0.836-0.143c-0.567-0.128-1.373-0.309-2.423-0.546    c-2.145-0.507-5.27-1.246-9.289-2.195c-8.065-1.909-19.742-4.647-34.222-7.791c-14.478-3.148-31.763-6.694-51.033-10.213    c-9.635-1.762-19.764-3.521-30.284-5.231c-2.631-0.421-5.284-0.845-7.96-1.272c-2.66-0.41-5.352-0.775-7.988-0.487    c-2.636,0.24-5.121,1.39-6.922,3.338c-1.827,1.929-2.944,4.497-3.72,7.137c-0.776,2.662-1.201,5.413-1.536,8.182    c-0.346,2.766-0.689,5.513-1.031,8.241c-0.267,2.736-0.533,5.452-0.797,8.146c-0.272,2.694-0.41,5.377-0.62,8.03    c-0.701,10.624-1.049,20.897-1.036,30.686c-0.008,19.579,0.954,37.204,1.962,51.983c1.03,14.78,2.067,26.728,2.757,34.988    c0.333,4.116,0.592,7.316,0.77,9.513c0.074,1.074,0.13,1.898,0.169,2.477c0.031,0.559,0.036,0.846,0.014,0.848    c-0.023,0.002-0.071-0.281-0.145-0.836c-0.069-0.577-0.168-1.397-0.297-2.465c-0.234-2.192-0.574-5.385-1.012-9.491    c-0.844-8.246-2.02-20.185-3.167-34.968c-1.126-14.782-2.184-32.426-2.242-52.049c-0.045-9.811,0.277-20.113,0.964-30.771    c0.206-2.662,0.34-5.354,0.61-8.057c0.262-2.704,0.526-5.43,0.791-8.175c0.341-2.738,0.684-5.496,1.029-8.272    c0.335-2.771,0.767-5.599,1.575-8.371c0.811-2.751,1.986-5.503,4.02-7.658c1.004-1.075,2.216-1.956,3.538-2.595    c1.328-0.637,2.763-0.982,4.184-1.137c2.857-0.306,5.643,0.089,8.326,0.503c2.678,0.432,5.335,0.86,7.967,1.285    c10.526,1.728,20.66,3.514,30.296,5.309c19.274,3.586,36.552,7.227,51.014,10.492c14.463,3.26,26.113,6.135,34.144,8.195    c4.018,1.021,7.127,1.857,9.232,2.431c1.037,0.29,1.832,0.513,2.392,0.67C704.09,382.409,704.363,382.5,704.357,382.522z"/>
	</g>
	<g opacity="0.36">
		<path fill="#154593" d="M562.864,368.89c-0.241,0.264-2.534-1.437-5.123-3.798c-0.319-0.297-0.629-0.586-0.936-0.872l0.89-0.899    c1.928,2.156,3.22,3.924,2.991,4.137c-0.228,0.213-1.901-1.2-3.917-3.273l0.89-0.9c0.313,0.28,0.629,0.562,0.954,0.853    C561.201,366.498,563.105,368.626,562.864,368.89z"/>
	</g>
	<g opacity="0.36">
		
			<ellipse transform="matrix(0.2046 0.9789 -0.9789 0.2046 802.9936 -261.5722)" fill="#154593" cx="562.438" cy="363.284" rx="5.749" ry="0.646"/>
	</g>
	<path fill="#EF6C74" d="M698.724,188.044c0,0-5.474,76.981-12.892,85.004c-7.419,8.023-56.356,43.619-56.356,43.619l9.565,24.942   c0,0,67.348-38.218,74.922-57.98c9.153-23.883,10.799-60.993,11.071-76.865c0.115-6.698-2.64-13.254-7.887-17.418   C711.566,184.917,705.405,184.624,698.724,188.044z"/>
	<g opacity="0.23">
		<path fill="#2B4C60" d="M736.162,395.654c-0.171,0.858-13.555-1.246-30.156-2.575c-16.602-1.386-30.148-1.484-30.177-2.358    c-0.045-0.79,13.611-2.048,30.423-0.648C723.062,391.422,736.335,394.883,736.162,395.654z"/>
	</g>
	<g opacity="0.23">
		<path fill="#2B4C60" d="M731.065,260.289c-0.135,0.107-0.623-0.055-0.846-0.891c-0.208-0.83,0.206-2.125,1.389-2.98    c0.587-0.42,1.415-0.774,2.445-0.679c0.531,0.07,1.004,0.234,1.418,0.478c0.433,0.239,0.826,0.571,1.152,0.955    c1.295,1.563,1.649,3.737,0.947,5.81c-0.732,2.005-2.335,3.541-4.322,3.965c-0.49,0.096-0.992,0.125-1.467,0.057    c-0.471-0.043-1.002-0.231-1.404-0.451c-0.816-0.48-1.321-1.144-1.627-1.783c-0.612-1.288-0.425-2.585,0.073-3.23    c0.495-0.656,0.98-0.678,1.085-0.535c0.145,0.168-0.003,0.518,0,0.983c-0.015,0.447,0.168,1.1,0.672,1.688    c0.248,0.287,0.581,0.53,0.905,0.635c0.179,0.037,0.284,0.064,0.496,0.049c0.202,0,0.405-0.047,0.612-0.114    c0.821-0.254,1.75-1.167,2.134-2.274c0.387-1.053,0.203-2.371-0.279-3.069c-0.537-0.732-1.003-0.9-1.755-0.65    c-0.706,0.264-1.139,0.765-1.3,1.142C731.214,259.788,731.252,260.173,731.065,260.289z"/>
	</g>
	<g>
		<path fill="#AF4A54" d="M696.087,212.394c0.184,0.008,0.289,1.782,0.292,4.984c0.001,3.202-0.094,7.837-0.492,13.564    c-0.411,5.721-1.124,12.559-2.859,20.016c-1.699,7.44-4.587,15.531-9.436,23.044c-4.942,7.466-11.21,13.307-17.189,18.002    c-6.003,4.705-11.692,8.467-16.388,11.703c-9.465,6.37-14.855,10.893-15.128,10.601c-0.116-0.127,1.075-1.452,3.445-3.622    c2.365-2.178,5.987-5.097,10.567-8.533c4.571-3.447,10.132-7.365,15.942-12.092c5.795-4.721,11.774-10.421,16.487-17.54    c4.624-7.168,7.489-14.92,9.278-22.15c1.824-7.238,2.728-13.956,3.377-19.605C695.204,219.447,695.662,212.369,696.087,212.394z"/>
	</g>
	<polygon fill="#AF4A54" points="680.505,188.382 681.514,176.954 700.192,173.508 705.795,185.721  "/>
	<polyline fill="#AF4A54" points="668.708,175.568 676.066,176.954 676.066,188.382 666.752,186.484 669.011,173.508  "/>
	<g>
		<g>
			<g>
				<path fill="#AF4A54" d="M650.665,302.635c-0.008-0.003,0.017-0.106,0.075-0.303c0.069-0.224,0.159-0.511,0.271-0.872      c0.26-0.796,0.624-1.913,1.088-3.334c0.485-1.456,1.072-3.221,1.752-5.264c0.677-2.054,1.503-4.375,2.274-6.986      c3.284-10.381,7.508-24.821,11.446-40.96c3.829-16.171,6.629-30.955,8.421-41.692c0.5-2.676,0.819-5.12,1.15-7.257      c0.323-2.129,0.602-3.969,0.832-5.486c0.233-1.477,0.416-2.637,0.546-3.464c0.064-0.372,0.115-0.668,0.155-0.899      c0.038-0.202,0.062-0.305,0.07-0.304c0.009,0.001,0.003,0.107-0.018,0.311c-0.027,0.233-0.061,0.531-0.104,0.906      c-0.107,0.83-0.258,1.995-0.45,3.478c-0.206,1.521-0.455,3.365-0.744,5.499c-0.303,2.142-0.597,4.588-1.074,7.271      c-1.701,10.764-4.446,25.573-8.279,41.759c-3.941,16.154-8.225,30.592-11.602,40.951c-0.794,2.606-1.645,4.92-2.349,6.966      c-0.713,2.033-1.329,3.789-1.837,5.238c-0.503,1.408-0.899,2.514-1.18,3.303c-0.132,0.354-0.237,0.635-0.319,0.854      C650.716,302.542,650.673,302.638,650.665,302.635z"/>
			</g>
		</g>
	</g>
	<g>
		<g>
			<g>
				<path fill="#AF4A54" d="M641.917,264.803c-0.035-0.009,0.039-0.509,0.202-1.406c0.193-0.991,0.441-2.262,0.738-3.785      c0.756-3.169,1.316-7.631,2.088-12.532c0.442-4.939,0.984-9.398,1.021-12.665c0.082-1.55,0.15-2.844,0.204-3.853      c0.06-0.91,0.11-1.412,0.146-1.411c0.036,0.001,0.054,0.506,0.057,1.417c-0.01,1.01-0.023,2.306-0.038,3.859      c0.057,3.26-0.427,7.752-0.872,12.717c-0.774,4.919-1.395,9.388-2.244,12.545c-0.363,1.511-0.665,2.772-0.902,3.755      C642.092,264.328,641.952,264.812,641.917,264.803z"/>
			</g>
		</g>
	</g>
	<polygon fill="#AF4A54" points="516.711,297.766 522.088,271.6 532.395,270.944 526.682,298.399  "/>
	<polygon fill="#AF4A54" points="639.04,341.608 628.5,314.321 638.331,310.685 647.215,336.812  "/>
	<g>
		<g>
			<rect x="358.34" y="310.05" fill="#AD9380" width="470.657" height="15.418"/>
			<polygon fill="#AD9380" points="395.149,325.468 358.34,556.951 376.744,557.288 439.91,325.468    "/>
			<polyline fill="#AD9380" points="794.732,322.919 816.181,561.753 798.969,561.753 752.677,332.839 750.256,315.789      794.732,322.919    "/>
			<polygon opacity="0.15" fill="#00143A" points="751.63,325.468 753.341,336.12 795.776,334.541 794.961,325.468    "/>
			<polygon opacity="0.15" fill="#00143A" points="395.149,325.468 393.415,336.375 437.269,335.158 439.91,325.468    "/>
		</g>
	</g>
	<g>
		<linearGradient id="SVGID_3_" gradientUnits="userSpaceOnUse" x1="391.8312" y1="330.3125" x2="643.8401" y2="187.2806">
			<stop offset="0" style="stop-color:#FFFFFF"/>
			<stop offset="1" style="stop-color:#FFFFFF;stop-opacity:0"/>
		</linearGradient>
		<polygon opacity="0.23" fill="url(#SVGID_3_)" points="429.274,223.19 606.341,154.321 698.719,157.585 697.419,223.19     589.48,304.004 528.918,301.59   "/>
		<polygon fill="#B4CCE9" points="428.829,224.393 458.147,310.066 590.899,310.066 589.92,305.654 536.241,303.994     511.511,224.348   "/>
		<path fill="#F3F0EB" d="M487.656,265.884c0.876,3.511-0.627,6.949-3.358,7.679c-2.731,0.73-5.656-1.523-6.532-5.033    c-0.876-3.511,0.627-6.949,3.359-7.679C483.855,260.12,486.779,262.373,487.656,265.884z"/>
	</g>
	<g>
		<g>
			<path fill="#5ECC95" d="M743.424,283.614c-3.89-13.391-5.705-32.182-6.728-46.089c-0.201-2.738-0.333-5.575,0.642-8.141     c0.974-2.566,3.346-4.802,6.091-4.752c2.303,0.041,4.34,1.671,5.51,3.654c1.17,1.984,1.63,4.294,2.071,6.555     c2.518,12.9,5.036,25.799,7.554,38.699c2.414-4.587,5.594-8.77,9.368-12.323c1.689-1.59,4.136-3.135,6.165-2.011     c1.829,1.014,2.042,3.52,1.966,5.61c-0.23,6.323-1.041,12.624-2.42,18.799"/>
		</g>
		<path fill="#154593" d="M737.996,282.278c0,0-6.637,26.265,20.187,27.473c24.683,1.111,18.747-27.473,18.747-27.473H737.996z"/>
	</g>
	<g>
		<path fill="#00143A" d="M685.801,123.886c0.01-0.018,0.21,0.08,0.586,0.286c0.378,0.198,0.91,0.551,1.523,1.09    c1.216,1.049,2.795,3.034,3.287,5.972c0.232,1.449,0.201,3.114-0.338,4.774c-0.542,1.644-1.498,3.32-2.985,4.613    c-0.722,0.664-1.573,1.222-2.504,1.655c-0.925,0.447-1.942,0.756-3.003,0.892c-2.116,0.32-4.403-0.089-6.406-1.154    c-1.986-1.099-3.575-2.794-4.46-4.744c-0.464-0.963-0.758-1.985-0.888-3.004c-0.144-1.016-0.14-2.035,0.024-3.002    c0.275-1.951,1.159-3.666,2.243-5.017c1.098-1.356,2.478-2.289,3.82-2.884c2.731-1.188,5.257-0.945,6.798-0.497    c0.785,0.22,1.371,0.474,1.743,0.683C685.619,123.753,685.811,123.867,685.801,123.886c-0.031,0.067-0.808-0.41-2.361-0.791    c-1.525-0.37-3.969-0.531-6.565,0.659c-1.276,0.595-2.578,1.506-3.606,2.81c-1.014,1.299-1.838,2.936-2.081,4.784    c-0.149,0.916-0.145,1.879-0.003,2.839c0.128,0.962,0.411,1.926,0.852,2.833c0.843,1.837,2.341,3.427,4.213,4.465    c1.89,1.003,4.039,1.393,6.038,1.098c1.001-0.124,1.963-0.412,2.839-0.829c0.882-0.404,1.691-0.925,2.379-1.549    c1.417-1.211,2.34-2.793,2.878-4.351c0.533-1.572,0.588-3.16,0.392-4.554c-0.417-2.826-1.883-4.787-3.024-5.865    C686.586,124.339,685.761,123.948,685.801,123.886z"/>
	</g>
	<g>
		<path fill="#00143A" d="M657.084,121.82c0.001-0.021,0.224-0.022,0.652-0.005c0.427,0.008,1.061,0.087,1.849,0.296    c1.556,0.396,3.856,1.468,5.607,3.878c0.855,1.193,1.57,2.697,1.828,4.423c0.249,1.713,0.141,3.64-0.612,5.46    c-0.35,0.917-0.863,1.796-1.502,2.599c-0.629,0.812-1.401,1.543-2.289,2.138c-1.751,1.231-3.98,1.886-6.248,1.827    c-2.267-0.097-4.446-0.905-6.108-2.255c-0.844-0.655-1.564-1.438-2.135-2.292c-0.583-0.845-1.033-1.758-1.318-2.697    c-0.625-1.869-0.599-3.798-0.232-5.49c0.378-1.703,1.196-3.154,2.131-4.285c1.914-2.282,4.282-3.192,5.862-3.479    c0.801-0.154,1.439-0.189,1.865-0.167C656.862,121.782,657.085,121.799,657.084,121.82c0.002,0.074-0.906-0.007-2.466,0.346    c-1.53,0.35-3.789,1.296-5.581,3.519c-0.876,1.102-1.635,2.498-1.973,4.124c-0.328,1.615-0.335,3.448,0.272,5.21    c0.276,0.887,0.709,1.746,1.264,2.542c0.544,0.804,1.227,1.54,2.027,2.155c1.574,1.268,3.625,2.022,5.763,2.116    c2.138,0.054,4.236-0.556,5.894-1.712c0.84-0.558,1.573-1.245,2.171-2.009c0.609-0.755,1.1-1.583,1.437-2.448    c0.727-1.716,0.848-3.544,0.633-5.178c-0.225-1.645-0.884-3.091-1.682-4.251c-1.634-2.342-3.821-3.444-5.324-3.899    C657.989,121.876,657.077,121.893,657.084,121.82z"/>
	</g>
	<g>
		
			<ellipse transform="matrix(-0.9994 -0.0347 0.0347 -0.9994 1332.595 289.5488)" fill="#00143A" cx="668.808" cy="133.219" rx="2.195" ry="0.302"/>
	</g>
	<g>
		
			<ellipse transform="matrix(-0.9994 -0.0347 0.0347 -0.9994 1386.7504 292.3816)" fill="#00143A" cx="695.912" cy="134.16" rx="5.249" ry="0.302"/>
	</g>
	<g>
		<path fill="#00143A" d="M701.157,154.321c6.916-7.487,7.521-18.49,7.642-28.681c0.058-4.9-0.18-10.043-2.671-14.262    c-2.444-4.138-6.752-6.833-11.168-8.729c-6.781-2.91-14.358-4.304-21.615-2.968s-14.123,5.619-17.693,12.076    c0,0,33.474-0.663,35.682,0.641c2.209,1.304,9.102,6.148,8.543,12.11c-0.559,5.962-2.236,14.781-2.236,14.781l5.403-0.809    c0,0-0.396-8.145,1.863-7.847C707.166,130.931,701.157,154.321,701.157,154.321z"/>
	</g>
	<g>
		<path fill="#F6BA99" d="M702.694,140.471c0.247,0.945,1.281,1.527,2.257,1.512c0.976-0.015,1.884-0.507,2.661-1.1    c1.627-1.241,2.889-3.054,3.145-5.084c0.256-2.03-0.634-4.245-2.405-5.271c-1.771-1.026-4.349-0.558-5.415,1.189L702.694,140.471z    "/>
	</g>
	<path fill="#FCE8CF" d="M366.399,312.19v-18.468l9.303-2.053l-9.303-5.747v-17.465h99.234v10.464l5.606-0.023   c-0.919,1.041,1.807,2.293,0.61,2.733c-2.01,0.74-6.836,1.897-6.836,1.897l1.24,7.276l-5.582,1.25l7.442,5.226l1.241,13.752   l-102.955,2.12"/>
</g>
</svg>